<?xml version="1.0" encoding="UTF-8"?>
<svg id="Layer_1" data-name="Layer 1" xmlns="http://www.w3.org/2000/svg" viewBox="0 0 442.25 439.29">
  <defs>
    <style>
      .cls-1 {
        fill: #fff;
      }
    </style>
  </defs>
  <g id="IrYwWm.tif">
    <path class="cls-1" d="M228.2,0l17.18,1.25c102.43,9.6,190.56,99.03,196.46,202.25.17,2.89-.46,6.16.42,8.9v17.39l-1.29,17.13c-10.82,97.24-88.34,177.89-185.02,192.37v-154.43h51.34l9.52-63.76h-60.86v-47.41c0-2.49,2.31-9.41,3.5-11.82,11.06-22.28,39.97-15.99,60.26-16.96v-54.24c-11.38-1.2-22.7-3.08-34.14-3.74-32.49-1.88-64.07,2.99-83.78,31.35-20.74,29.84-13.16,67.15-14.55,101.38.09.42-.3,1.43-.64,1.43h-55.69v63.76h56.31v154.43c-83.62-12.27-154.28-74.84-177.83-155.68-4.97-17.05-7.38-32.99-8.49-50.71-.09-1.5-.4-3.74-.82-5.18.15-4.4-.21-8.86,0-13.25C5.54,97.22,96.5,4.2,214.53,0h13.66Z"/>
  </g>
</svg>