<?xml version="1.0" encoding="UTF-8"?>
<svg id="Layer_1" data-name="Layer 1" xmlns="http://www.w3.org/2000/svg" viewBox="0 0 372.15 372.01">
  <defs>
    <style>
      .cls-1 {
        fill: #fff;
      }
    </style>
  </defs>
  <g id="JQUEvc.tif">
    <g>
      <path class="cls-1" d="M228.17,0c.37.59,1.35.35,1.95.36,39.19.41,77.84-.11,108.35,28.18,30.53,28.3,32.84,63.18,33.32,102.5,0,.6-.23,1.58.36,1.95v106.03c-.59.37-.35,1.35-.36,1.95-.37,35.62-2.16,68.81-27.29,96.47s-59.43,34.2-94.89,33.84l-9.03.72h-107.81l-9.74-.72c-29.7.06-60.5-4.54-84.05-23.75C.53,316.18,1.06,272.46.5,226.78c0-.6.23-1.58-.36-1.95.33-25.87-.44-51.8,0-77.66C.95,99.22.57,51.89,43.44,21.14,72.86.04,110.08.52,144.83,0h83.34ZM157.78,33.88c-27.9.32-69.26-2.4-93,13.56-32.67,21.96-29.66,61.81-30.23,96.73-.56,34.08-.77,68.42.35,102.46.82,24.69,1.14,49.43,18.95,68.64,19.57,21.11,46.22,21.58,73.07,22.32,39.7,1.1,79.77,1.12,119.48,0,27.68-.78,54.12-1.47,73.78-23.74,17.77-20.12,17.29-48.29,17.89-73.61.86-35.96.85-72.52,0-108.49-.69-28.88-.12-57.99-23.2-78.93-19.4-17.6-45.14-17.76-69.89-18.42-29.02-.77-58.17-.86-87.22-.53Z"/>
      <path class="cls-1" d="M180.93,90.53c73.94-4.22,125.05,74.55,89.98,140.34-33.38,62.61-121.48,68.45-162.54,10.39-43.4-61.37-2.05-146.47,72.56-150.73ZM183.76,124.22c-48.78,2.4-75.9,57.27-47.74,97.53s90.79,32.17,108.1-13.76c15.56-41.28-16.21-85.94-60.37-83.77Z"/>
      <path class="cls-1" d="M285.45,64.37c28.46-.54,30.37,42.71,2.13,44.87-30.66,2.34-33.01-44.28-2.13-44.87Z"/>
    </g>
  </g>
</svg>