<?xml version="1.0" encoding="UTF-8"?>
<svg id="Layer_1" data-name="Layer 1" xmlns="http://www.w3.org/2000/svg" viewBox="0 0 417 416.36">
  <defs>
    <style>
      .cls-1 {
        fill: #fff;
      }
    </style>
  </defs>
  <g id="RfaY8b">
    <g>
      <path class="cls-1" d="M190.06.66c170.52-13.17,286.66,172.67,194.37,318.28-85.45,134.81-281.91,128.43-358.98-11.17C-46.52,177.42,42.26,12.07,190.06.66ZM86.73,348.38c98.53,84.54,255.65,44.23,296.48-79.57C435.33,110.78,273.75-31.51,124.59,42.8,8.28,100.74-11.98,263.68,86.73,348.38Z"/>
      <path class="cls-1" d="M152.08,99.63l58.69,81.48,68.39-79.94c5.98-3.4,15.25-.75,22.09-1.54l-1.54,5.78-77.8,91.23,92.4,132.85h-74.99c-17.58-29.65-39.47-56.7-59.51-84.74l-69.99,83.23c-5.25,3.45-15.76.65-22.12,1.51-2.04-1.98,4.99-10.1,6.56-12.17,22.73-29.96,52.42-57.11,74.72-87.8L79.53,99.63h72.55ZM278.43,311.57L140.66,117.56h-25.27l22.12,34.13c38.52,52.7,76.84,105.67,113.2,159.88h27.72Z"/>
    </g>
  </g>
</svg>